<svg xmlns="http://www.w3.org/2000/svg" viewBox="528.6 361.1 734.9 711.3">
	<path d="M808.2 629.7c-18.4 0-33.3-15-33.3-33.4s15-33.3 33.3-33.3c18.4 0 33.4 15 33.4 33.3.1 18.4-15 33.4-33.4 33.4zm0-43.8c-5.7 0-10.4 4.6-10.4 10.4 0 5.8 4.6 10.5 10.4 10.5 5.8 0 10.5-4.7 10.5-10.5s-4.7-10.4-10.5-10.4z"/>
	<path d="M981.1 629.7c-18.4 0-33.4-15-33.4-33.4s15-33.3 33.4-33.3 33.4 15 33.4 33.3c0 18.4-14.9 33.4-33.4 33.4zm0-43.8c-5.8 0-10.5 4.6-10.5 10.4 0 5.8 4.7 10.5 10.5 10.5s10.4-4.7 10.4-10.5c.1-5.8-4.6-10.4-10.4-10.4z"/>
	<path d="M895.9 743.4c-38 0-66.6-16.3-66.6-38.1v-11.5h133.2v11.5c-.1 21.8-28.7 38.1-66.6 38.1z"/>
	<path d="M1020.9 729.2l-22.2 5.6c2.1 8.3 3.5 19.6-1.6 26.1-5.4 6.8-16.3 6.7-18.2 6.8-19.5 2.5-55.3 2.4-67.7-8.6-2.1-1.8-2.6-4.2-3-6.7 0-.7.4-1.3.4-2h-24.3c0 .7.4 1.2.4 2-.4 2.5-.9 4.9-3 6.7-12.4 11-48.2 11.1-69.4 8.5-.1.1-11 .2-16.4-6.7-5.1-6.6-3.8-17.8-1.6-26.1l-22.2-5.6c-5 19.5-3 35.1 6 46.2 12.4 15.3 32.5 15.3 33.1 15 2.5.3 12.6 1.5 25.5 1.5 19.5 0 45.1-2.8 59.9-15.4 14.7 12.7 40.5 15.4 59.6 15.4 12.5 0 22.1-1.2 23.9-1.4 2.1.4 22.6.2 35-15.1 8.8-11.2 10.8-26.7 5.8-46.2z"/>
	<path d="M1180.2 885.2c1.6-1.7 3.5-3.1 5-4.9 7.7-8.6 5.9-23.6 2.4-47.4-.5-3.3-1.1-7.3-1.6-11.1 12.3 5 22.2 8.6 31 4.7 4.5-1.9 8-5.5 9.8-10.2 17.2-41 17.2-85.4.2-135.4 7.3.7 15.8.8 22-4.8 2.7-2.5 5.8-6.9 5.5-14.8l-.3-3.7c-1.1-12.8-2.2-26.6-3.8-42-4.6-40.4-17.7-77.3-38.1-110.3 2.3-5 4.4-10.1 5.8-15.5 11.9-45.7-13.2-91.8-55.8-102.8-25-6.5-50.5.7-69.9 16.9-13.9-6.9-28.4-13.2-44-18-10.3-3.6-21.9.1-33.1 3.6-3.8 1.2-9.6 3-12.9 3.5-7.2-14.1-21.6-24.2-38-26.6-39.8-5.7-67.7-5.3-68.5-5.3-.9.1-29.1-.4-68.9 5.3-16.8 2.5-31 12.7-37.6 26.7-3.5-.4-9.7-2.4-13.8-3.6-10.9-3.3-22-6.8-32-3.6-11.7 3.9-26.3 9.7-41.5 16.6-1.8-1.4-2.9-3.4-4.8-4.6-18.9-12.3-40.9-16.2-62.3-10.6-42.6 11.1-67.8 57.2-56 102.9.9 3.6 2.5 6.8 3.8 10.2-22.5 34.3-36.7 72.9-41.4 115.5-1.5 15.3-2.6 29.1-3.7 41.9l-.3 3.8c-.4 5.8 1.5 10.9 5.3 14.6 6 5.8 14.6 5.7 22.2 4.9-17.1 49.1-17.2 93.6-.2 135.7 7.7 17.5 26.1 11.3 40.8 5.3-.4 3.8-1 7.9-1.5 11.3-3.3 23.6-5 38.6 2.6 47 .7.9 1.8 1.8 2.6 2.7-41.7 47.8-79 171.1-80.6 176.5l44 13.1c17.2-57.9 46.5-129.8 69.3-157.6 10 8.8 20.7 17.9 33.5 27.8 1.1 1.1 2.5 2.2 3.8 3.4l10.1 6.6 4.8-.9c7.9-1.5 12.5-8.3 16.9-15l.6-.9c2.3 4.4 4.9 10 6.7 13.9 7.9 17.3 13.2 28.1 21.8 31.9 13.9 6.6 27.8 12.4 41.3 18 8.8 3.6 17.3 7.2 25.6 10.9 13.7 5.8 22.9-4.3 27.6-10.4 8.9 11 21.7 25 38.8 25h.1c2.6.3 5.8.4 9.3.4 14.5 0 34-2 40.8-2.7 21.3-2.5 30.4-10.3 35.6-20.6 4.9 6 13.4 13.6 25.5 8.2 7.6-3.3 15.4-6.5 23.4-9.7 14.4-5.9 29.3-12 43.9-19 8.8-3.9 13.9-14.5 21.6-31.5 1.8-4.1 4.4-9.9 6.7-14.2.1.1.2.2.2.3 4.4 6.8 9 13.8 17 15.3l7.6.2 4-2.9c1.5-1.1 2.7-2.2 4-3.3l2.6-2.2c9.6-7.6 20.6-16.7 31.6-26.3 35.8 31.9 62.2 116.7 72.5 149.7l43.8-13.5c-18.6-60.2-44.7-131.6-83.4-168.4zm-70.5-428.7c7.1-18.2 24.4-29.5 41.3-25.1 17.8 4.6 28.3 26.1 22.9 46.9-2.6 9.9-9 17.7-16.7 23.3-.4 0-.7.1-1.2.1-7.3.2-41.3-17.7-46.4-42.1-.2-1.1.2-2 .1-3.1zm23.1 213.6c0 121.8-93 200.5-237 200.5-146.2 0-236.9-76.8-236.9-200.5 0-113.9 106.3-206.6 237-206.6 130.7-.1 236.9 92.6 236.9 206.6zM646.4 431.6c8.7-2.2 17.7-.6 25.8 4.6 5.8 3.8 10 9.4 13.3 15.7.1 1.1.2 2.6.2 3.4.1 21.6-11.9 48.4-42.1 49.4-9.7-5.2-17.2-14.7-20.2-26.2-5.4-20.8 5.2-42.3 23-46.9z"/>
</svg>
